# xmcd
#
# Track frame offsets:
# 150
# 19079
# 38702
# 51759
# 63635
# 69232
# 87338
# 105605
# 126472
# 137316
# 151312
# 168989
# 188073
# 203762
# 220034
# 233632
# 249258
# 268242
# 287647
# 308645
# 327210
# 335904
#
# Disc length: 4755 seconds
#
#
# Revision: 0
# Processed by: cddbd v1.5.2PL0 Copyright (c) Steve Scherf et al.
# Submitted via: FreeRIP 2.945 
#
DISCID=38129116
DTITLE=AZ and Various - AZ UR Mix CD
DYEAR=1900
DGENRE=Hip-Hop
TTITLE0=Rise and Fall(little brother)
TTITLE1=Never Change
TTITLE2=Paradise
TTITLE3=Rebirth
TTITLE4=Dead Presidents Freestyle
TTITLE5=The Truth
TTITLE6=Thug Connections(Papoose KoolGRap)
TTITLE7=The Flyest(Nas)
TTITLE8=New York(Raekwon GhostFace)
TTITLE9=Gimme Yours(Nas)
TTITLE10=Wanna Be There
TTITLE11=City Of Gods
TTITLE12=The Essence(Nas)
TTITLE13=Redemption(Cormega)
TTITLE14=General President Senator(Nas JayZ)
TTITLE15=Money Dont Make You Rich(StorngArmSteady)
TTITLE16=Love Aint(Tonedeff)
TTITLE17=The Plague
TTITLE18=Porcelin
TTITLE19=Lets Ride
TTITLE20=Like Ireegular Chicken
TTITLE21=One(Akir)
EXTD=
EXTT0=
EXTT1=
EXTT2=
EXTT3=
EXTT4=
EXTT5=
EXTT6=
EXTT7=
EXTT8=
EXTT9=
EXTT10=
EXTT11=
EXTT12=
EXTT13=
EXTT14=
EXTT15=
EXTT16=
EXTT17=
EXTT18=
EXTT19=
EXTT20=
EXTT21=
PLAYORDER=
